<svg xmlns="http://www.w3.org/2000/svg" viewBox="0 0 512 512" role="img" aria-labelledby="gcLogoIconTitle gcLogoIconDesc">
  <title id="gcLogoIconTitle">GC Renting icon logo</title>
  <desc id="gcLogoIconDesc">Blue house icon with layered base, no text.</desc>
  <defs>
    <linearGradient id="gcIconRoof" x1="0%" y1="0%" x2="100%" y2="100%">
      <stop offset="0%" stop-color="#7EE7FF"/>
      <stop offset="45%" stop-color="#2A8DEB"/>
      <stop offset="100%" stop-color="#1C4ED8"/>
    </linearGradient>
    <linearGradient id="gcIconRightWall" x1="0%" y1="0%" x2="100%" y2="0%">
      <stop offset="0%" stop-color="#FFFFFF"/>
      <stop offset="100%" stop-color="#BDEBFF"/>
    </linearGradient>
    <linearGradient id="gcIconLayer" x1="0%" y1="0%" x2="100%" y2="0%">
      <stop offset="0%" stop-color="#7EE7FF"/>
      <stop offset="100%" stop-color="#2A8DEB"/>
    </linearGradient>
  </defs>

  <path d="M64 356 L236 318 L420 338 L236 392 Z" fill="url(#gcIconLayer)" opacity="0.98"/>
  <path d="M74 372 L236 338 L402 354 L236 406 Z" fill="#1C4ED8" opacity="0.92"/>
  <path d="M84 386 L236 358 L382 370 L236 422 Z" fill="#2A8DEB" opacity="0.8"/>

  <polygon points="96,268 236,160 376,268 334,268 236,188 138,268" fill="url(#gcIconRoof)"/>
  <rect x="156" y="208" width="22" height="50" fill="url(#gcIconRoof)"/>

  <polygon points="124,268 236,188 236,364 124,334" fill="#1C4ED8"/>
  <polygon points="236,188 348,268 348,348 236,364" fill="url(#gcIconRightWall)"/>
  <polygon points="236,364 348,348 236,388 124,334" fill="#1C4ED8"/>

  <rect x="278" y="282" width="34" height="78" rx="2" fill="#2A8DEB"/>
  <rect x="278" y="282" width="34" height="10" fill="#1C4ED8" opacity="0.3"/>

  <rect x="158" y="280" width="16" height="16" fill="#FFFFFF" opacity="0.97"/>
  <rect x="180" y="280" width="16" height="16" fill="#FFFFFF" opacity="0.97"/>
  <rect x="158" y="302" width="16" height="16" fill="#FFFFFF" opacity="0.97"/>
  <rect x="180" y="302" width="16" height="16" fill="#FFFFFF" opacity="0.97"/>

  <rect x="278" y="226" width="14" height="14" fill="#2A8DEB" opacity="0.9"/>
  <rect x="296" y="226" width="14" height="14" fill="#2A8DEB" opacity="0.9"/>
  <rect x="278" y="244" width="14" height="14" fill="#2A8DEB" opacity="0.9"/>
  <rect x="296" y="244" width="14" height="14" fill="#2A8DEB" opacity="0.9"/>
</svg>
