<svg xmlns="http://www.w3.org/2000/svg" viewBox="0 0 1280 360" role="img" aria-labelledby="gcLogoWhiteTitle gcLogoWhiteDesc">
  <title id="gcLogoWhiteTitle">GC Renting white logo</title>
  <desc id="gcLogoWhiteDesc">Monochrome white logo for dark backgrounds.</desc>

  <g transform="translate(34 16)" fill="#FFFFFF">
    <path d="M16 270 L236 222 L468 246 L236 312 Z" opacity="0.95"/>
    <path d="M28 284 L236 244 L444 260 L236 326 Z" opacity="0.82"/>
    <path d="M42 298 L236 264 L420 276 L236 338 Z" opacity="0.68"/>

    <polygon points="72,190 236,64 400,190 354,190 236,94 118,190"/>
    <rect x="146" y="120" width="24" height="56"/>

    <polygon points="104,190 236,94 236,286 104,250" opacity="0.92"/>
    <polygon points="236,94 368,190 368,268 236,286" opacity="0.74"/>
    <polygon points="236,286 368,268 236,318 104,250" opacity="0.92"/>

    <rect x="286" y="204" width="42" height="82" rx="1.5" opacity="0.88"/>

    <rect x="142" y="198" width="18" height="18" opacity="0.96"/>
    <rect x="167" y="198" width="18" height="18" opacity="0.96"/>
    <rect x="142" y="222" width="18" height="18" opacity="0.96"/>
    <rect x="167" y="222" width="18" height="18" opacity="0.96"/>

    <rect x="286" y="140" width="18" height="18" opacity="0.84"/>
    <rect x="309" y="140" width="18" height="18" opacity="0.84"/>
    <rect x="286" y="163" width="18" height="18" opacity="0.84"/>
    <rect x="309" y="163" width="18" height="18" opacity="0.84"/>
  </g>

  <text x="520" y="230" fill="#FFFFFF" font-family="Georgia, 'Times New Roman', serif" font-size="116" font-weight="600" letter-spacing="0.5">
    GC Renting
  </text>
</svg>
