<svg xmlns="http://www.w3.org/2000/svg" viewBox="0 0 960 260" role="img" aria-labelledby="gcLogoNavbarTitle gcLogoNavbarDesc">
  <title id="gcLogoNavbarTitle">GC Renting navbar logo</title>
  <desc id="gcLogoNavbarDesc">Compact blue house icon with serif GC Renting wordmark for navigation bars.</desc>
  <defs>
    <linearGradient id="gcNavRoof" x1="0%" y1="0%" x2="100%" y2="100%">
      <stop offset="0%" stop-color="#7EE7FF"/>
      <stop offset="45%" stop-color="#2A8DEB"/>
      <stop offset="100%" stop-color="#1C4ED8"/>
    </linearGradient>
    <linearGradient id="gcNavRightWall" x1="0%" y1="0%" x2="100%" y2="0%">
      <stop offset="0%" stop-color="#FFFFFF"/>
      <stop offset="100%" stop-color="#BDEBFF"/>
    </linearGradient>
    <linearGradient id="gcNavLayer" x1="0%" y1="0%" x2="100%" y2="0%">
      <stop offset="0%" stop-color="#7EE7FF"/>
      <stop offset="100%" stop-color="#2A8DEB"/>
    </linearGradient>
  </defs>

  <g transform="translate(26 12)">
    <path d="M12 194 L168 158 L338 178 L168 226 Z" fill="url(#gcNavLayer)" opacity="0.96"/>
    <path d="M24 206 L168 176 L320 192 L168 238 Z" fill="#1C4ED8" opacity="0.9"/>

    <polygon points="52,136 168,46 284,136 250,136 168,68 86,136" fill="url(#gcNavRoof)"/>
    <rect x="106" y="86" width="18" height="40" fill="url(#gcNavRoof)"/>

    <polygon points="74,136 168,68 168,210 74,186" fill="#1C4ED8"/>
    <polygon points="168,68 262,136 262,198 168,210" fill="url(#gcNavRightWall)"/>
    <polygon points="168,210 262,198 168,230 74,186" fill="#1C4ED8"/>

    <rect x="202" y="146" width="30" height="62" rx="1.5" fill="#2A8DEB"/>

    <rect x="102" y="142" width="13" height="13" fill="#FFFFFF" opacity="0.95"/>
    <rect x="120" y="142" width="13" height="13" fill="#FFFFFF" opacity="0.95"/>
    <rect x="102" y="160" width="13" height="13" fill="#FFFFFF" opacity="0.95"/>
    <rect x="120" y="160" width="13" height="13" fill="#FFFFFF" opacity="0.95"/>
  </g>

  <text x="382" y="170" fill="#FFFFFF" font-family="Georgia, 'Times New Roman', serif" font-size="90" font-weight="700" letter-spacing="0.2">
    GC Renting
  </text>
</svg>
