<svg xmlns="http://www.w3.org/2000/svg" viewBox="0 0 1280 360" role="img" aria-labelledby="gcLogoMainTitle gcLogoMainDesc">
  <title id="gcLogoMainTitle">GC Rentals main logo</title>
  <desc id="gcLogoMainDesc">Blue house icon with layered base and GC Rentals serif wordmark.</desc>
  <defs>
    <linearGradient id="gcMainRoof" x1="0%" y1="0%" x2="100%" y2="100%">
      <stop offset="0%" stop-color="#7EE7FF"/>
      <stop offset="45%" stop-color="#2A8DEB"/>
      <stop offset="100%" stop-color="#1C4ED8"/>
    </linearGradient>
    <linearGradient id="gcMainRightWall" x1="0%" y1="0%" x2="100%" y2="0%">
      <stop offset="0%" stop-color="#FFFFFF"/>
      <stop offset="100%" stop-color="#BDEBFF"/>
    </linearGradient>
    <linearGradient id="gcMainLayerTop" x1="0%" y1="0%" x2="100%" y2="0%">
      <stop offset="0%" stop-color="#7EE7FF"/>
      <stop offset="100%" stop-color="#2A8DEB"/>
    </linearGradient>
    <linearGradient id="gcMainLayerMid" x1="0%" y1="0%" x2="100%" y2="0%">
      <stop offset="0%" stop-color="#BDEBFF"/>
      <stop offset="100%" stop-color="#2A8DEB"/>
    </linearGradient>
  </defs>

  <g transform="translate(34 16)">
    <path d="M16 270 L236 222 L468 246 L236 312 Z" fill="url(#gcMainLayerTop)" opacity="0.98"/>
    <path d="M28 284 L236 244 L444 260 L236 326 Z" fill="url(#gcMainLayerMid)" opacity="0.95"/>
    <path d="M42 298 L236 264 L420 276 L236 338 Z" fill="#1C4ED8" opacity="0.9"/>

    <polygon points="72,190 236,64 400,190 354,190 236,94 118,190" fill="url(#gcMainRoof)"/>
    <rect x="146" y="120" width="24" height="56" fill="url(#gcMainRoof)"/>

    <polygon points="104,190 236,94 236,286 104,250" fill="#1C4ED8"/>
    <polygon points="236,94 368,190 368,268 236,286" fill="url(#gcMainRightWall)"/>
    <polygon points="236,286 368,268 236,318 104,250" fill="#1C4ED8"/>

    <rect x="286" y="204" width="42" height="82" rx="1.5" fill="#2A8DEB"/>
    <rect x="286" y="204" width="42" height="10" fill="#1C4ED8" opacity="0.35"/>

    <rect x="142" y="198" width="18" height="18" fill="#FFFFFF" opacity="0.96"/>
    <rect x="167" y="198" width="18" height="18" fill="#FFFFFF" opacity="0.96"/>
    <rect x="142" y="222" width="18" height="18" fill="#FFFFFF" opacity="0.96"/>
    <rect x="167" y="222" width="18" height="18" fill="#FFFFFF" opacity="0.96"/>

    <rect x="286" y="140" width="18" height="18" fill="#2A8DEB" opacity="0.9"/>
    <rect x="309" y="140" width="18" height="18" fill="#2A8DEB" opacity="0.9"/>
    <rect x="286" y="163" width="18" height="18" fill="#2A8DEB" opacity="0.9"/>
    <rect x="309" y="163" width="18" height="18" fill="#2A8DEB" opacity="0.9"/>
  </g>

  <text x="520" y="230" fill="#111111" font-family="Georgia, 'Times New Roman', serif" font-size="116" font-weight="600" letter-spacing="0.5">
    GC Rentals
  </text>
</svg>
